<mxfile host="65bd71144e">
    <diagram id="0q0uDB8cmmE78NBs5yt0" name="Page-1">
        <mxGraphModel dx="1046" dy="771" grid="1" gridSize="10" guides="1" tooltips="1" connect="1" arrows="1" fold="1" page="1" pageScale="1" pageWidth="827" pageHeight="1169" math="0" shadow="0">
            <root>
                <mxCell id="0"/>
                <mxCell id="1" parent="0"/>
                <mxCell id="7" value="&lt;font style=&quot;font-size: 32px&quot;&gt;Ingress&lt;/font&gt;" style="rounded=1;whiteSpace=wrap;html=1;fillColor=#1ba1e2;strokeColor=#006EAF;fontColor=#ffffff;" parent="1" vertex="1">
                    <mxGeometry x="80" y="50" width="120" height="60" as="geometry"/>
                </mxCell>
                <mxCell id="8" value="&lt;font style=&quot;font-size: 16px&quot; color=&quot;#ffffff&quot;&gt;SERVICE&lt;/font&gt;" style="points=[[0,0,0],[0.25,0,0],[0.5,0,0],[0.75,0,0],[1,0,0],[0,1,0],[0.25,1,0],[0.5,1,0],[0.75,1,0],[1,1,0],[0,0.25,0],[0,0.5,0],[0,0.75,0],[1,0.25,0],[1,0.5,0],[1,0.75,0]];outlineConnect=0;fontColor=#232F3E;gradientColor=#F78E04;gradientDirection=north;fillColor=#D05C17;strokeColor=#ffffff;dashed=0;verticalLabelPosition=bottom;verticalAlign=top;align=center;html=1;fontSize=12;fontStyle=0;aspect=fixed;shape=mxgraph.aws4.resourceIcon;resIcon=mxgraph.aws4.eks;" parent="1" vertex="1">
                    <mxGeometry x="80" y="170" width="120" height="120" as="geometry"/>
                </mxCell>
                <object label="" data-keyframe-id="3" data-motion-id="pod1" motion-id="pod1" keyframe-id="3" id="13">
                    <mxCell style="html=1;dashed=0;whitespace=wrap;fillColor=#2875E2;strokeColor=#ffffff;points=[[0.005,0.63,0],[0.1,0.2,0],[0.9,0.2,0],[0.5,0,0],[0.995,0.63,0],[0.72,0.99,0],[0.5,1,0],[0.28,0.99,0]];shape=mxgraph.kubernetes.icon;prIcon=pod" parent="1" vertex="1">
                        <mxGeometry x="100" y="50" width="80" height="60" as="geometry"/>
                    </mxCell>
                </object>
                <object label="" data-keyframe-id="3" data-motion-id="pod2" keyframe-id="3" motion-id="pod2" id="14">
                    <mxCell style="html=1;dashed=0;whitespace=wrap;fillColor=#2875E2;strokeColor=#ffffff;points=[[0.005,0.63,0],[0.1,0.2,0],[0.9,0.2,0],[0.5,0,0],[0.995,0.63,0],[0.72,0.99,0],[0.5,1,0],[0.28,0.99,0]];shape=mxgraph.kubernetes.icon;prIcon=pod" parent="1" vertex="1">
                        <mxGeometry x="100" y="190" width="80" height="98" as="geometry"/>
                    </mxCell>
                </object>
                <object label="&lt;font color=&quot;#000000&quot; style=&quot;line-height: 200%&quot;&gt;POD!&lt;/font&gt;" data-keyframe-id="1" data-motion-id="pod1" keyframe-id="1" motion-id="pod1" id="2">
                    <mxCell style="html=1;dashed=0;whitespace=wrap;fillColor=#2875E2;strokeColor=#ffffff;points=[[0.005,0.63,0],[0.1,0.2,0],[0.9,0.2,0],[0.5,0,0],[0.995,0.63,0],[0.72,0.99,0],[0.5,1,0],[0.28,0.99,0]];shape=mxgraph.kubernetes.icon;prIcon=pod" parent="1" vertex="1">
                        <mxGeometry x="350" y="208" width="80" height="80" as="geometry"/>
                    </mxCell>
                </object>
                <object label="" data-keyframe-id="2" data-motion-id="pod2" motion-id="pod2" keyframe-id="2" id="3">
                    <mxCell style="html=1;dashed=0;whitespace=wrap;fillColor=#2875E2;strokeColor=#ffffff;points=[[0.005,0.63,0],[0.1,0.2,0],[0.9,0.2,0],[0.5,0,0],[0.995,0.63,0],[0.72,0.99,0],[0.5,1,0],[0.28,0.99,0]];shape=mxgraph.kubernetes.icon;prIcon=pod" parent="1" vertex="1">
                        <mxGeometry x="570" y="190" width="80" height="98" as="geometry"/>
                    </mxCell>
                </object>
                <mxCell id="9" style="edgeStyle=none;html=1;entryX=0.5;entryY=0;entryDx=0;entryDy=0;entryPerimeter=0;" parent="1" source="7" target="8" edge="1">
                    <mxGeometry relative="1" as="geometry"/>
                </mxCell>
                <object label="" data-keyframe-id="1" data-motion-id="pod2" keyframe-id="1" motion-id="pod2" id="12">
                    <mxCell style="html=1;dashed=0;whitespace=wrap;fillColor=#2875E2;strokeColor=#ffffff;points=[[0.005,0.63,0],[0.1,0.2,0],[0.9,0.2,0],[0.5,0,0],[0.995,0.63,0],[0.72,0.99,0],[0.5,1,0],[0.28,0.99,0]];shape=mxgraph.kubernetes.icon;prIcon=pod" parent="1" vertex="1">
                        <mxGeometry x="350" y="24.5" width="80" height="88" as="geometry"/>
                    </mxCell>
                </object>
                <object label="&lt;font color=&quot;#000000&quot; style=&quot;line-height: 200%&quot;&gt;POD!&lt;/font&gt;" data-keyframe-id="1" data-motion-id="pod1" keyframe-id="2" motion-id="pod1" id="15">
                    <mxCell style="html=1;dashed=0;whitespace=wrap;fillColor=#2875E2;strokeColor=#ffffff;points=[[0.005,0.63,0],[0.1,0.2,0],[0.9,0.2,0],[0.5,0,0],[0.995,0.63,0],[0.72,0.99,0],[0.5,1,0],[0.28,0.99,0]];shape=mxgraph.kubernetes.icon;prIcon=pod" vertex="1" parent="1">
                        <mxGeometry x="560" y="24.5" width="80" height="80" as="geometry"/>
                    </mxCell>
                </object>
                <mxCell id="16" value="" style="shape=manualInput;whiteSpace=wrap;html=1;" vertex="1" parent="1">
                    <mxGeometry x="280" y="400" width="80" height="80" as="geometry"/>
                </mxCell>
                <mxCell id="17" value="" style="shape=orEllipse;perimeter=ellipsePerimeter;whiteSpace=wrap;html=1;backgroundOutline=1;" vertex="1" parent="1">
                    <mxGeometry x="430" y="370" width="80" height="80" as="geometry"/>
                </mxCell>
                <mxCell id="18" value="" style="shape=lineEllipse;perimeter=ellipsePerimeter;whiteSpace=wrap;html=1;backgroundOutline=1;" vertex="1" parent="1">
                    <mxGeometry x="80" y="520" width="80" height="80" as="geometry"/>
                </mxCell>
                <mxCell id="19" value="" style="shape=tapeData;whiteSpace=wrap;html=1;perimeter=ellipsePerimeter;" vertex="1" parent="1">
                    <mxGeometry x="350" y="505" width="80" height="80" as="geometry"/>
                </mxCell>
                <UserObject label="Organization" treeRoot="1" id="20">
                    <mxCell style="whiteSpace=wrap;html=1;align=center;treeFolding=1;treeMoving=1;newEdgeStyle={&quot;edgeStyle&quot;:&quot;elbowEdgeStyle&quot;,&quot;startArrow&quot;:&quot;none&quot;,&quot;endArrow&quot;:&quot;none&quot;};" vertex="1" parent="1">
                        <mxGeometry x="510" y="500" width="120" height="60" as="geometry"/>
                    </mxCell>
                </UserObject>
                <mxCell id="21" value="Table" style="shape=table;startSize=30;container=1;collapsible=0;childLayout=tableLayout;fixedRows=1;rowLines=0;fontStyle=1;align=center;pointerEvents=1;" vertex="1" parent="1">
                    <mxGeometry x="610" y="310" width="180" height="150" as="geometry"/>
                </mxCell>
                <mxCell id="22" value="" style="shape=partialRectangle;html=1;whiteSpace=wrap;collapsible=0;dropTarget=0;pointerEvents=1;fillColor=none;top=0;left=0;bottom=1;right=0;points=[[0,0.5],[1,0.5]];portConstraint=eastwest;" vertex="1" parent="21">
                    <mxGeometry y="30" width="180" height="30" as="geometry"/>
                </mxCell>
                <mxCell id="23" value="1" style="shape=partialRectangle;html=1;whiteSpace=wrap;connectable=0;fillColor=none;top=0;left=0;bottom=0;right=0;overflow=hidden;pointerEvents=1;" vertex="1" parent="22">
                    <mxGeometry width="40" height="30" as="geometry"/>
                </mxCell>
                <mxCell id="24" value="Value 1" style="shape=partialRectangle;html=1;whiteSpace=wrap;connectable=0;fillColor=none;top=0;left=0;bottom=0;right=0;align=left;spacingLeft=6;overflow=hidden;pointerEvents=1;" vertex="1" parent="22">
                    <mxGeometry x="40" width="140" height="30" as="geometry"/>
                </mxCell>
                <mxCell id="25" value="" style="shape=partialRectangle;html=1;whiteSpace=wrap;collapsible=0;dropTarget=0;pointerEvents=1;fillColor=none;top=0;left=0;bottom=0;right=0;points=[[0,0.5],[1,0.5]];portConstraint=eastwest;" vertex="1" parent="21">
                    <mxGeometry y="60" width="180" height="30" as="geometry"/>
                </mxCell>
                <mxCell id="26" value="2" style="shape=partialRectangle;html=1;whiteSpace=wrap;connectable=0;fillColor=none;top=0;left=0;bottom=0;right=0;overflow=hidden;pointerEvents=1;" vertex="1" parent="25">
                    <mxGeometry width="40" height="30" as="geometry"/>
                </mxCell>
                <mxCell id="27" value="Value 2" style="shape=partialRectangle;html=1;whiteSpace=wrap;connectable=0;fillColor=none;top=0;left=0;bottom=0;right=0;align=left;spacingLeft=6;overflow=hidden;pointerEvents=1;" vertex="1" parent="25">
                    <mxGeometry x="40" width="140" height="30" as="geometry"/>
                </mxCell>
                <mxCell id="28" value="" style="shape=partialRectangle;html=1;whiteSpace=wrap;collapsible=0;dropTarget=0;pointerEvents=1;fillColor=none;top=0;left=0;bottom=0;right=0;points=[[0,0.5],[1,0.5]];portConstraint=eastwest;" vertex="1" parent="21">
                    <mxGeometry y="90" width="180" height="30" as="geometry"/>
                </mxCell>
                <mxCell id="29" value="3" style="shape=partialRectangle;html=1;whiteSpace=wrap;connectable=0;fillColor=none;top=0;left=0;bottom=0;right=0;overflow=hidden;pointerEvents=1;" vertex="1" parent="28">
                    <mxGeometry width="40" height="30" as="geometry"/>
                </mxCell>
                <mxCell id="30" value="Value 3" style="shape=partialRectangle;html=1;whiteSpace=wrap;connectable=0;fillColor=none;top=0;left=0;bottom=0;right=0;align=left;spacingLeft=6;overflow=hidden;pointerEvents=1;" vertex="1" parent="28">
                    <mxGeometry x="40" width="140" height="30" as="geometry"/>
                </mxCell>
                <mxCell id="31" value="" style="rhombus;whiteSpace=wrap;html=1;strokeWidth=2;fillWeight=-1;hachureGap=8;fillStyle=cross-hatch;fillColor=#006600;sketch=1;" vertex="1" parent="1">
                    <mxGeometry x="200" y="620" width="120" height="60" as="geometry"/>
                </mxCell>
                <mxCell id="32" value="" style="rounded=1;whiteSpace=wrap;html=1;strokeWidth=2;fillWeight=4;hachureGap=8;hachureAngle=45;fillColor=#1ba1e2;sketch=1;" vertex="1" parent="1">
                    <mxGeometry x="490" y="650" width="120" height="60" as="geometry"/>
                </mxCell>
                <mxCell id="33" value="Icon" style="icon;html=1;image=img/clipart/Gear_128x128.png" vertex="1" parent="1">
                    <mxGeometry x="700" y="560" width="60" height="60" as="geometry"/>
                </mxCell>
                <mxCell id="34" value="" style="shape=filledEdge;rounded=0;fixDash=1;endArrow=none;strokeWidth=10;fillColor=#ffffff;edgeStyle=orthogonalEdgeStyle;" edge="1" parent="1">
                    <mxGeometry width="60" height="40" relative="1" as="geometry">
                        <mxPoint x="50" y="690" as="sourcePoint"/>
                        <mxPoint x="110" y="650" as="targetPoint"/>
                    </mxGeometry>
                </mxCell>
                <mxCell id="35" value="Table" style="shape=table;startSize=30;container=1;collapsible=0;childLayout=tableLayout;fontStyle=1;align=center;pointerEvents=1;" vertex="1" parent="1">
                    <mxGeometry x="40" y="340" width="180" height="150" as="geometry"/>
                </mxCell>
                <mxCell id="36" value="" style="shape=partialRectangle;html=1;whiteSpace=wrap;collapsible=0;dropTarget=0;pointerEvents=0;fillColor=none;top=0;left=0;bottom=0;right=0;points=[[0,0.5],[1,0.5]];portConstraint=eastwest;" vertex="1" parent="35">
                    <mxGeometry y="30" width="180" height="40" as="geometry"/>
                </mxCell>
                <mxCell id="37" value="" style="shape=partialRectangle;html=1;whiteSpace=wrap;connectable=0;fillColor=none;top=0;left=0;bottom=0;right=0;overflow=hidden;pointerEvents=1;" vertex="1" parent="36">
                    <mxGeometry width="60" height="40" as="geometry"/>
                </mxCell>
                <mxCell id="38" value="" style="shape=partialRectangle;html=1;whiteSpace=wrap;connectable=0;fillColor=none;top=0;left=0;bottom=0;right=0;overflow=hidden;pointerEvents=1;" vertex="1" parent="36">
                    <mxGeometry x="60" width="60" height="40" as="geometry"/>
                </mxCell>
                <mxCell id="39" value="" style="shape=partialRectangle;html=1;whiteSpace=wrap;connectable=0;fillColor=none;top=0;left=0;bottom=0;right=0;overflow=hidden;pointerEvents=1;" vertex="1" parent="36">
                    <mxGeometry x="120" width="60" height="40" as="geometry"/>
                </mxCell>
                <mxCell id="40" value="" style="shape=partialRectangle;html=1;whiteSpace=wrap;collapsible=0;dropTarget=0;pointerEvents=0;fillColor=none;top=0;left=0;bottom=0;right=0;points=[[0,0.5],[1,0.5]];portConstraint=eastwest;" vertex="1" parent="35">
                    <mxGeometry y="70" width="180" height="40" as="geometry"/>
                </mxCell>
                <mxCell id="41" value="" style="shape=partialRectangle;html=1;whiteSpace=wrap;connectable=0;fillColor=none;top=0;left=0;bottom=0;right=0;overflow=hidden;pointerEvents=1;" vertex="1" parent="40">
                    <mxGeometry width="60" height="40" as="geometry"/>
                </mxCell>
                <mxCell id="42" value="" style="shape=partialRectangle;html=1;whiteSpace=wrap;connectable=0;fillColor=none;top=0;left=0;bottom=0;right=0;overflow=hidden;pointerEvents=1;" vertex="1" parent="40">
                    <mxGeometry x="60" width="60" height="40" as="geometry"/>
                </mxCell>
                <mxCell id="43" value="" style="shape=partialRectangle;html=1;whiteSpace=wrap;connectable=0;fillColor=none;top=0;left=0;bottom=0;right=0;overflow=hidden;pointerEvents=1;" vertex="1" parent="40">
                    <mxGeometry x="120" width="60" height="40" as="geometry"/>
                </mxCell>
                <mxCell id="44" value="" style="shape=partialRectangle;html=1;whiteSpace=wrap;collapsible=0;dropTarget=0;pointerEvents=0;fillColor=none;top=0;left=0;bottom=0;right=0;points=[[0,0.5],[1,0.5]];portConstraint=eastwest;" vertex="1" parent="35">
                    <mxGeometry y="110" width="180" height="40" as="geometry"/>
                </mxCell>
                <mxCell id="45" value="" style="shape=partialRectangle;html=1;whiteSpace=wrap;connectable=0;fillColor=none;top=0;left=0;bottom=0;right=0;overflow=hidden;pointerEvents=1;" vertex="1" parent="44">
                    <mxGeometry width="60" height="40" as="geometry"/>
                </mxCell>
                <mxCell id="46" value="" style="shape=partialRectangle;html=1;whiteSpace=wrap;connectable=0;fillColor=none;top=0;left=0;bottom=0;right=0;overflow=hidden;pointerEvents=1;" vertex="1" parent="44">
                    <mxGeometry x="60" width="60" height="40" as="geometry"/>
                </mxCell>
                <mxCell id="47" value="" style="shape=partialRectangle;html=1;whiteSpace=wrap;connectable=0;fillColor=none;top=0;left=0;bottom=0;right=0;overflow=hidden;pointerEvents=1;" vertex="1" parent="44">
                    <mxGeometry x="120" width="60" height="40" as="geometry"/>
                </mxCell>
                <mxCell id="48" value="&lt;h1&gt;Heading&lt;/h1&gt;&lt;p&gt;Lorem ipsum dolor sit amet, consectetur adipisicing elit, sed do eiusmod tempor incididunt ut labore et dolore magna aliqua.&lt;/p&gt;" style="text;html=1;strokeColor=none;fillColor=none;spacing=5;spacingTop=-20;whiteSpace=wrap;overflow=hidden;rounded=0;" vertex="1" parent="1">
                    <mxGeometry x="650" y="88" width="190" height="120" as="geometry"/>
                </mxCell>
                <mxCell id="49" value="Text" style="text;html=1;strokeColor=none;fillColor=none;align=center;verticalAlign=middle;whiteSpace=wrap;rounded=0;" vertex="1" parent="1">
                    <mxGeometry x="260" y="170" width="40" height="20" as="geometry"/>
                </mxCell>
                <mxCell id="50" value="" style="triangle;whiteSpace=wrap;html=1;" vertex="1" parent="1">
                    <mxGeometry x="450" y="150" width="60" height="80" as="geometry"/>
                </mxCell>
                <mxCell id="51" value="" style="shape=image;verticalLabelPosition=bottom;labelBackgroundColor=#ffffff;verticalAlign=top;aspect=fixed;imageAspect=0;image=data:image/png,iVBORw0KGgoAAAANSUhEUgAAAggAAAGGCAYAAAAernlWAAAgAElEQVR4Xu2dB7gWxfWHX3q5dJRepSsoTUQsYG+xxF4Soyb22ILd2P0bjR0TW2JNosYu9o4iiiCgKIjSm9J75wL/53zjDaDI9+39yt2Z/e3z+AS5szPnvGfNvnd2drbchg0bNqBDBERABERABERABDYhUE6CoOtBBERABERABETgpwQkCLomREAEREAEREAEfkZAgqCLQgREQAREQAREQIKga0AEREAEREAERCA9Ac0gpGekFiIgAiIgAiKQOAIShMSVXAmLgAiIgAiIQHoCEoT0jNRCBERABERABBJHQIKQuJIrYREQAREQARFIT0CCkJ6RWoiACIiACIhA4ghIEBJXciUsAiIgAiIgAukJSBDSM1ILERABERABEUgcAQlC4kquhEVABERABEQgPQEJQnpGaiECIiACIiACiSMgQUhcyZWwCIiACIiACKQnIEFIz0gtREAEREAERCBxBCQIiSu5EhYBERABERCB9AQkCOkZqYUIiIAIiIAIJI6ABCFxJVfCIiACIiACIpCegAQhPSO1EAEREAEREIHEEZAgJK7kSlgEREAEREAE0hOQIKRnpBYiIAIiIAIikDgCEoTElVwJi4AIiIAIiEB6AhKE9IzUQgREQAREQAQSR0CCkLiSK2EREAEREAERSE9AgpCekVqIgAiIgAiIQOIISBASV3IlLAIiIAIiIALpCUgQ0jNSCxEQAREQARFIHAEJQuJKroRFQAREQAREID0BCUJ6RmohAiIgAiIgAokjIEFIXMmVsAiIgAiIgAikJyBBSM9ILURABERABEQgcQQkCIkruRIWAREQAREQgfQEJAjpGamFCIiACIiACCSOgAQhcSVXwiIgAiIgAiKQnoAEIT0jtRABERABERCBxBGQICSu5EpYBERABERABNITkCCkZ6QWIiACIiACIpA4AhKExJVcCYuACIiACIhAegIShPSM1EIEREAEREAEEkdAgpC4kithERABERABEUhPQIKQnpFaiIAIiIAIiEDiCEgQEldyJSwCIiACIiAC6QlIENIzUgsREAEREAERSBwBCULiSq6ERUAEREAERCA9AQlCekZqIQIiIAIiIAKJIyBBSFzJY5bwhg1QXAxfT4SBg2D4J7B0ecyCVDgikCWB1s2h405wRD9o2wIqVsiyQ50uAvknIEHIP2ON8EsEVq+BJ1+Ft9+FhYuhW2do1wbq1hQzEQiHwAZg3iL4djyMHgstW8Gv9oND9oRKlcLJU5kER0CCEFxJPUlo7gK4+laYMgMOOgROPxKqV/UkeIUpAqUkYLNj9z4Jgz6AHl3gyvOhZlEpO9NpIpBfAhKE/PJV71sisGAxXHIjLFgIN1wKndtDuXJiJQLJILBuHYwaAzfcCS2awc2XQ60aychdWXpFQILgVbkCCHblKrjqFvh+Ntx1PTRuEEBSSkEESkFgzLdw5S2waw+4+GytSygFQp2SXwIShPzyVe8/JfD6h3DHffCXq6DXjuIjAsklYAt0P/gMbr3XyfL2bZPLQpnHkoAEIZZlCTSodevhzD9Dp/bQ/5RAk1RaIhCRwDX3wIIlMOAqKF8+4slqLgL5IyBByB9b9fxTAl9NgP5Xw31/gbatxEcERMAIDP4Mrr0DHroT2jYTExGIDQEJQmxKkYBA7n8cPvsC7r0RampRVgIqrhQzITBzFpx1GfzhZDh8n0zOUBsRKAgBCUJBMGuQFIFLbwLb++DOa6GCNorRVSECKQJr1sKJ50Lf3nDeaYIiArEhIEGITSkSEEj/G1ySd1yTgGSVoghEIHDsmdBnZ7jwDxFOUlMRyC8BCUJ++ar3TQlIEHQ9iMCWCUgQdGXEkIAEIYZFCTYkCUKwpVViWRKQIGQJUKfng4AEIR9U1eeWCUgQdGWIgGYQdA14Q0CC4E2pAghUghBAEZVCXghoBiEvWNVpdgQkCNnx09lRCEgQotBS2yQRkCAkqdre5CpB8KZUAQQqQQigiEohLwQkCHnBqk6zIyBByI6fzo5CQIIQhZbaJomABCFJ1fYmVwmCN6UKIFAJQgBFVAp5ISBByAtWdZodAQlCdvx0dhQCEoQotNQ2SQQkCEmqtje5ShC8KVUAgUoQAiiiUsgLAQlCXrCq0+wISBCy46ezoxCQIEShpbZJIiBBSFK1vclVguBNqQIIVIIQQBGVQl4ISBDyglWdZkdAgpAdP50dhYAEIQottU0SAQlCkqrtTa4SBG9KFUCgEoQAiqgU8kJAgpAXrOo0OwIShOz46ewoBCQIUWipbZIISBCSVG1vcpUgeFOqAAKVIARQRKWQFwIShLxgVafZEZAgZMdPZ0chIEGIQkttk0RAgpCkanuTqwTBm1IFEKgEIYAiKoW8EJAg5AWrOs2OgAQhO346OwoBCUIUWmqbJAIShCRV25tcJQjelCqAQCUIARRRKeSFgAQhL1jVaXYEJAjZ8dPZUQhIEKLQUtskEZAgJKna3uQqQfCmVAEEKkEIoIhKIS8EJAh5wapOsyMgQciOn86OQkCCEIWW2iaJgAQhSdX2JlcJgjelCiBQCUIARVQKeSEgQcgLVnWaHQEJQnb8dHYUAhKEKLTUNkkEJAhJqrY3uUoQvClVAIFKEAIoolLICwEJQl6wqtPsCEgQsuOns6MQkCBEoaW2SSIgQUhStb3JVYLgTakCCFSCEEARlUJeCEgQ8oJVnWZHQIKQHT+dHYWABCEKLbVNEgEJQpKq7U2uEgRvShVAoBKEAIqoFPJCQIKQF6zqNDsCEoTs+OnsKAQkCFFoqW2SCEgQklRtb3KVIHhTqgAClSAEUESlkBcCEoS8YFWn2RGQIGTHT2dHISBBiEJLbZNEQIKQpGp7k6sEwZtSBRCoBCGAIiqFvBCQIOQFqzrNjoAEITt+OjsKAQlCFFpqmyQCEoQkVdubXCUI3pQqgEAlCAEUUSnkhYAEIS9Y1Wl2BCQI2fHT2VEISBCi0Mq+7QaguBhWrYEly2DJcli5GlavcX2XKwdF1aBKZahTA2pUh8qVoGKF7MdWD9EISBCi8VLrghCQIBQEswZJEZAgFOZCWL8Bps+CL8fDyG9g3DSoUQ3q1oDKlZ0U2LFunZOFpSthwWKoVAm6toOenWCHNlC7RmHi1SggQdBVEEMCEoQYFiXYkCQI+Svt+vXw/TwYPR5GfQsLl8C2daFVY2jVBGoVQaWK7p+KFaEcYCJhkrC2GFashgWLYNJMmPIDrF4LTRtArx1gh+2gZvX8xa6eJQi6BmJJQIIQy7IEGpQEIT+FLV4Hz78Hz38A7ZrD3j1hu6bucYE9Roh6mDisWAlfT4SBg6FaFTj7KNixXdSe1D5TAppByJSU2hWQgAShgLATP5QEIbeXgN3I3xkKb37qZgv26gHNGkKF8rkZx9YwrFoNX02AIV9C7ZpwZD/Yfrvc9K9eNhKQIOhqiCEBCUIMixJsSBKE3JXW1gzc8zR8Pxd+fwQ02xbK50gMthSlrVX4aBS8PxyO2x/228U9rtCRGwIShNxwVC85JSBByClOdbZVAhKE7C+QDRtg3BR47FVoUA8O2hXq1My+30x7mDQDXvoItmsCJx5Y2LEzjdHHdhIEH6sWfMwShOBLHKMEJQjZFcPkYPgYuONJOHov2K1rdv2V9mxb1GiCsmgpXHUabFOntD3pvBICEgRdCzEkIEGIYVGCDUmCUPrSmhy8+xm8NgQO2R06tsrdWoPSRLVsJQweBROmwwUnQKP6pelF50gQdA3EmIAEIcbFCS40CULpSzp2MtzxHzdzsFP7aP2sW//jngdr3f+WHPa6Y2V77bFC6dYv2EzCc++7DZj6n+RepdRROgKaQSgdN52VVwIShLziVeebEZAglO6CmDUPbvgnHLYndG6T+c3c9jL4diqM/g7sVUjby6DCj7sklryhsGKVu7F3aQvbNXPCEOWwXRqffx+qVISzj9HCxSjsNm0rQSgtOZ2XRwIShDzCVdc/ISBBiH5JLF8Jd/7HvWJ4RN/MtkG2Nw6+m+b2MbA9DPboBk233biVckkUdnO3/qfNgk++hKUroHsnaN/c7aGQ6TF/MTz4Avxqd9h/Vyhfir0XMh0r1HYShFAr63VeEgSvy+dZ8BKE6AWzPQ7eGwbnHANVMrhp201+4IfQvBH06+HedMjkhm17KsyeD2984rZfPnBX942GTA/bffHRV+C28/VmQ6bMNINQGlI6p4AEJAgFhJ34oSQI0S6BmXPg+n/Cbw+CNs3Sn7toGbw0CHrvAP16Zv4oYtOe7VHEM++42YS9d4aiqunHtRa2iNLkwtYjnGsyE0EuMhsh7FaaQQi7vp5mJ0HwtHBehi1ByLxstpjwvufcTobHH5D+jQX7rf+J1+CQPaBHx9JtsVwSnS0+vP85GDPJ7bPQq3NmcS9eBjc8DBefBD06ZXaOWjkCEgRdCTEkIEGIYVGCDUmCkHlp5y2Cax9y30CoV2vr59lv7+9/DlUrw6/3ymydQrpIxk6C14e4RYddO7hvPGRyDBoBU3+Ay35XuhmMTMYIsY0EIcSqep+TBMH7EnqUgAQh82I9+SYsXAq/7pf+nOUr4NWP4YITM1tvkL5HtwnSjQ/D7w6Bvz/rNkSy1yHTHTbj8cDzcMnJ7vsQOjIjIEHIjJNaFZSABKGguBM+mAQhswtg7iK4+n639qB10/Tn2OyBbVS0b6/0bTNtYa8/XvcQXHmqE4Q9ukLbDGcRbDMnWxh5yqHpH41kGk/o7SQIoVfYy/wkCF6WzdOgJQiZFe7jUXDfC3DLOWCbGW3tsPUCtzwO156e290MV66G6x+CP/8BJsyAkd+4NxsyOSbOgPufh/svh9o1MjlDbSQIugZiSECCEMOiBBuSBCF9aW09gf3GbusJDt4tfXt7vdA++Xz1H3L7zH/hErj5UbjhTLCdGB8ZCEfvkz4ea2FyYY8nzj8OunfM7Jykt5IgJP0KiGX+EoRYliXQoCQI6QtrN+NrH3Ry0Kpx+vbDx4LtimibKOXyGDMRPv4Sfn842B4J/3wRjshgPYTFYO1feB8a1ofj9stlVOH2JUEIt7YeZyZB8Lh43oUuQUhfMtse+doH4MyjMtsYyfYesLUHLTOQifSjuxb2yuQ9T0GLRnDc/u7vbOHhoXtmvghy5Di3zXP/32Q6arLbSRCSXf+YZi9BiGlhggxLgpC+rJNmwr/fgD8cnr6ttXjpQzh+P6hXO7P26VotWwFPveW+2WCPO35zkNv0yPZFiCIItifCf9+B685IN6J+bgQkCLoOYkhAghDDogQbkgQhfWk/GgWjvoVjMnjeP2eB20zJHkfYXgXb1oGqVUr35oAtdrSNkd4e6jY52rULPP8eHLCr267Z1iDs3zvzGQR77HH/s3DlaVA9w90Y09MJt4UEIdzaepyZBMHj4nkXugQhfckGfgR2489kgaL19vTb7u2F7+fCnIXQoQXUr+P+bpvaUL2amwGwjy9t+g0lWydgrzIuXgpTZsH4qW73xQP6QJum7s+fjIa6NaFTa3j4ZScLmXzXoSTLf7wI5x2Xu9mN9PT8bSFB8Ld2AUcuQQi4uLFLTYKQviT2eMGOvXumb2stbIOkY/d1mxiZLByyGyxfBZO/d9Jg/9jN3h4X2GEzBbY7ov17rRrQsB5s39p96dE+B20/K1/e/dZv6whMLOxT0I8OhP0izCDYWCYVpx3uviSpY+sEJAi6QmJIQIIQw6IEG5IEIX1pTRDst3T7EmMmR4kgzJjt9h6wG77d5GsVbXzUYAsf7aZvb0XYmwX2M/soU8mnnmfNd8JQ+UdxWLbSiYSJxg7bwZF7uXUJEoRMKlK6NhKE0nHTWXklIEHIK151vhkBCUL6C6I0gnD03nDLEzB2svtQUs/tN3+kUFwM8xbDQy/C8DFutsEeMdQscnsVdG4L1Spv/MCTycPchTDgaRg3Bf52KXzwuQQhffVK30KCUHp2OjNvBCQIeUOrjn9GQIKQ/qKwzzXbVsv2qCCTw2YQbEHjP16Cpcvhz7/f/FPL9ncrVrsFjJ9/A1f8za1PsE9D77sLXHi8EwP7vPPKVbBNnY0bLn09Ee56Em79I7wyOLogPPQCnHusvsmQSR0lCJlQUpsCE5AgFBh4ooeTIKQv/4cj4YvvMnuLwXozQThuXxg/HWxPhMtOcY8K7LAPLv3nDbfdsa0jWLAUnnnbvXr49SQY+hVccYp73GAi0KgetGwCfbs7aTBB+GA4nHscPP5KdEG497/uWw42U6Fj6wQkCLpCYkhAghDDogQbkgQhfWknTHeLDU87LH3b/wnCfm69wQ3/hMtP2fh5aNsu2bY9rl/bLTj8cBTssgPs1RPWrIVLB8D5x7vFiSYTtkbhu2nQsbUThH+/7hYY7tMr+iJFW8fw2Ctw87mZ5ZH0VhKEpF8BscxfghDLsgQalAQhfWHXFMPV98GZR7o9DdIdqRmE/dzCw5c/dNP5u+20+Vm2AHHYWHjkZRhwsXsEYX/32Ktut0ObUbBvP2x62JqFv/z4LYaiatEFwdZD2AzEhSeky0A/NwISBF0HMSQgQYhhUYINSYKQvrTr1rlvMRyye2bbJ5cIgj1GmLcInngNtmsKO7Zz0jB/MXw+Fr4c70Sie6eN+yHYz2xRpI25645uBsHeoJj8Awz72vWxZ3f3d1Fec1y/Hmwthe3HcMIB6XNWCwmCroFYEpAgxLIsgQYlQUhfWPvN/u6noU4R7L/r5psbbensTQXBfm5bNT/wnHudcclyqFMD2reAvXtBtR9nJOxzzPbIYZ+doW4tt4Pip6Pdngm2fqF4vZOF3xy88c2GKIJgjzX+7xE452j3RoWO9AQ0g5CekVoUnIAEoeDIEzygBCGz4n80Ep54A64+ze1psLXjp4JgX4O0hYVNG8B2zdxv/z/tw15dtIWJtvbAPvJk6xHs1cfU3gir4NWP4ODd3dqFkiOKINgmTfbJ6nsv2byPzLJPZisJQjLrHvOsJQgxL1BQ4fX/i0vnjiuCSivnydiWyVfdB78/zH1RMYogWFv74JJt2WxbI296k99SPyYHg0e5hYv2aMD2O2jRGDq03Lx1FEF45zMXw1lHl+67EDkH6kGHx54HfXrAhad4EKxCTAoBCUJSKh2HPCUImVXBHjPYzoULl8IRfTdO82/p7J/OIJS0sccF9srkfr1gm7o/P9PGsFcjR3wDHVu51yDfGQq1a8IunX9+Y89UEOzxwoPPwx+PSy83mdFIRisJQjLq7FmWEgTPCuZ1uBKEzMtnCwivvt89x9/ap5x/SRBspJlzYNAItw6gdRO3u2LJYYJgjxpKZhhsEyXbJGnn7bcsJJkKwpAv3ZsRtv+Bbe+sIzMCEoTMOKlVQQlIEAqKO+GDSRAyvwBsPcDfn3GvIx69zy/fbLcmCDaaTfXbWwz22uEe3aBtc6hQwcWxcLH7YuOqNbBHV2iy7S+Pk4kg2KLIWx+H3x8Ou3fNPFe1BAmCroIYEpAgxLAowYYkQYhW2mmz4MaH4dRD3VsFWzrSCYKdY5JhrzPaLIJ9Y8H2QVi9xr2x0LyR+5KjvRq5tSOdINjHIm0nR5OOC07YfLYiWtbJbC1BSGbdY561BCHmBQoqPAlCtHLajd3WBQwaCWcftfE3/017yUQQVqyCT79yrzXaR5o2rCf1/qS94bB4OcxdAO1aZCcI9jjjgRfgL+dCg3rR8lRrzSDoGoglAQlCLMsSaFAShOiFtY8o3f4vaNYQDujtXkeMIgi2aNDeKrAtk3t0+vn49gjiraHQtR20blq6Rwy2TfPDL8NuXd2iSq09iF5nzSBEZ6Yz8k5AgpB3xBrgfwQkCKW7GGyHxMv/BsfuC53bpBcEm3mwrZLtuwrv2yuHK6FOTffaY7cOGxchLlgM7w2H0ePdTELfbrBje/co4qci8kuPGGysf73uHilceKKbldARnYAEIToznZF3AhKEvCPWABKEHFwD9paBfUvhiH6ww3Ybb/L2iMHEwRYIzpgDi5dCufJQVNV9l8HEwL7RUKmC2wTJvrlgGyStXus+0GQfZSouhj47uUWKs+e71yttwyU7x3ZktL0YXnj/519ztD0UXh0Cc+a7dQfp9lzIAYZgu5AgBFtanxOTIPhcPd9i1wxC6Stmv6m/O8x96fGsI6FJA7cNswlC423AvtzYr7vbQbHkLYWS0VauguffB3sFcf/e0KwBTJjhtmX+YZ77AqT93aaHjbdipXv7wV6VXFsMJ/9q4wyBrWV4bxgMGwPXnwXbbLLrYumzTO6ZEoTk1j7GmUsQYlyc4EKTIGRXUrtpf/wF/OdN2G8X6N0ZnnkPWjaCw/fc8iLGkhFtRuCNIW5moHF9N3MwYhwc3tcJxtaOVavhyvvgTyc5QTDhePY9JyU2c2AzDzqyIyBByI6fzs4LAQlCXrCq0y0SkCBkf2GYJHw7DQY8DV3bw6z5cO4xmU3v26uNj70Ce+0M9sjCNkVq1zyzmO58Eo7ZB2wb6KffcuOdc4z7YqSO7AlIELJnqB5yTkCCkHOk6vAXCUgQcndx2B4JtrfBsLFww5lu8WImCwSXLIOBg923Fnrap58zXFRo2yfbwsVR30HfHnBwHyiqlrt8kt6TBCHpV0As85cgxLIsgQYlQch9YQd+CC8Ogl6d4df9YNs6W3/UEDUCe7wwfho8PBDKV4Azf/3zDzlF7VPtf05AgqCrIoYEJAgxLEqwIUkQcl9a+wKj7Y748Zfuq4y22NBeZ7QtlatVKd149hhjwRIYPtYtULRJhgP7uH0U7O2ITGcdSjd6Ms+SICSz7jHPWoIQ8wIFFZ4EIb/ltFcU7U0He+xQqzp0bgvtW7idDWsXub0KUo8hNnmsYDJgkmG7LS5eBtNnw5fjYcr3UKkSHLgr7NpFWyfnt3LaSTHffNV/qQhIEEqFTSeVioAEoVTYIp1krx/aY4HZC+DrCTBmknuV0fZJqF0DGtZz32AoOeYvcfserCmGBnXcGwm2NsF2VbSFiLbuQDMGkUpQqsaaQSgVNp2UXwIShPzyVe+bEpAgFP56sK9CLl0Oy1fCgqUwZwHY35Uc9sjARKBeLahZBNX1CKHwRUIzCGUCXYOmIyBBSEdIP88dAQlC7liqp7AIaAYhrHoGko0EIZBCepGGBMGLMinIMiAgQSgD6BoyHQEJQjpC+nnuCEgQcsdSPYVFQIIQVj0DyUaCEEghvUhDguBFmRRkGRCQIJQBdA2ZjoAEIR0h/Tx3BCQIuWOpnsIiIEEIq56BZCNBCKSQXqQhQfCiTAqyDAhIEMoAuoZMR0CCkI6Qfp47AhKE3LFUT2ERkCCEVc9AspEgBFJIL9KQIHhRJgVZBgQkCGUAXUOmIyBBSEdIP88dAQlC7liqp7AISBDCqmcg2UgQAimkF2lIELwok4IsAwIShDKAriHTEZAgpCOkn+eOgAQhdyzVU1gEJAhh1TOQbCQIgRTSizQkCF6USUGWAQEJQhlA15DpCEgQ0hHSz3NHQIKQO5bqKSwCEoSw6hlINhKEQArpRRoSBC/KpCDLgIAEoQyga8h0BCQI6Qjp57kjIEHIHUv1FBYBCUJY9QwkGwlCIIX0Ig0JghdlUpBlQECCUAbQNWQ6AhKEdIT089wRkCDkjqV6CouABCGsegaSjQQhkEJ6kYYEwYsyKcgyICBBKAPoGjIdAQlCOkL6ee4ISBByx1I9hUVAghBWPQPJRoIQSCG9SEOC4EWZFGQZEJAglAF0DZmOgAQhHSH9PHcEJAi5Y6mewiIgQQirnoFkI0EIpJBepCFB8KJMCrIMCEgQygC6hkxHQIKQjpB+njsCoQjCmrUwegLMmge1iqB7J6hRzXFatx4+HwsdWkKdmrljF5eeliyDryfCDm2gdo24ROV/HBIE/2sYYAYShACLGtuUQhCEeYvgsr/BtB/cDXLVatgAXHs69NoBvpkM590Gpx4GJx0Y21KUOrAvv4NL7oFbzoPuHUvdjU78CQEJgi6JGBKQIMSwKMGGFIIg/P1ZeOUj+Ov50GgbWLQUrr7f/fmv50G5cjB2ErRsAnUDnEGQIOTnP08JQn64qtesCEgQssKnkyMRCEEQzrgZalWH2y/cmPoz78Ks+XD6EbBuHQwfC+1bQtNtXZtJM90/xcXQuilUrQzLVsIO28HUWTB9FjSsD19PgOUroWkD2KUzVK/6c7xLlsPIcdCplTvHjvXrYciX0KoJNG/oBMUedRRVg3FT3M9bNHKPBSqU33rJ7Nzi9VC9Cnw71c2OtGoMnVq7c7ckCHMWwNjJsGAx1KgO7Zq7PEuOmXPgy/GweJl77LJTO2jyI5u1xTBmEkyYDitXQ8tGsPMOUK2KO9s4GZfZC9z4lt/220GlipEuvdg3liDEvkRJDFCCkMSql1XOIQjCeX+F5avgkWs2UrSbqN1JbfZg4gw482Y4/3g4bE8YNgauewhWrHLtq1WFbeu4m+4NZ8ELH8ADz0PFCu4fu5nbjbJbRzcjUf4nN3S74V90J1z8G9inl+vT1kQcewWcfAgcuRfc/RQM/RqWLnfCsWEDVKkM5x0Lh+659erbuZ+NgcVLN8ZsQnPBCXBQn58Lgj1yOesWmL/IPXIxgTFJuOtCaNMcTADO+D+Yao9karoZF5OEf1wF29SB1z+Be56CShWgahVYuAQ6bQf39HeydcM/YehX7mf27yY+h/eFs4+G8uXK6krO/bgShNwzVY9ZE5AgZI1QHWRMIARB+OBzuPlR91uwPYOvV9vNFNhv2HaD31QQDt0Dbn4Ehn8Dt18AzRo4YbCb3q47wo0/CsK9/4Vzj4Ej+oHd8256GD7/Bu6/wp2z6ZGpILw0yEnEgX3cTdnWDdiN2WY+tjaLYIJg517yW3eu3fgvuMP95m6PVX46g3Dfc/DuZ3DbBdCmmZOKK/7u/tckYPx0OOMmuO8KN+thMxS2hsNE5tRD4ZxboXIluPU8qFIJ/v2GG3/AJY7FKdc5GTDZMjkY8F8YPgYeuplMcJgAACAASURBVMotEA3lkCCEUsmg8pAgBFXOmCcTgiDYb/ivD4GHXnRT5jZrYDfcw/rCecfB5JkbZxAO2R363+1mBQZcvLE4597qxKJEEP71Ovz3ZnejtOPVwWBrHe76E3RsVTpB+HgUPHuri8+OAU/DyG/dTXtr0/MmCO9/Di/fvvHcu5500/wPX/NzQbj4HjdTcXf/jY8FHn8VHn0F3rsfitfB3AXQrKGLw2TFFnGaUF15KvzuWtixHfT/jfu5sbJzLMYvvoWL7oLX7oKi6u7nX3wHl98L/77RzUCEckgQQqlkUHlIEIIqZ8yTCUEQShDbtL3dGGctgEdehm+mwKPXuinykkcMh+zmbnD2PN1+Qy457AZXqdJGQXjyTXjyptwKgv2mb/GUHA+9AJ+Mhn/8Ob0g2OzFv2/YeO4/XoTBX8AT129BEO6Gb6dB9w5QoYI7Z8r3bs3FO393Y42fBp985dYRLF3mZkd27wZXnepmDB57Bdq1gAZ1oUE92G1H6NrBzRRcMgD69dj4qGXREhgzGf4jQYj5f+0KLwACEoQAiuhNCiEIwnpba8DG364NvsnB2X+BR652i/rSCcJl9zoZKJlByIcgjB6/+TqJB1+ATzMUBFsEaTJQcpggfPwFPP4LgmCPEfbo+nPx+ONxMHs+/P4mt16gZyfYti68MxR6dXGCYIctUrT+baHiVxPdWgMTGZt5MEEw0SqZXbH2JiKnHLpx7wlv/gPYSqCaQQihisHlIEEIrqQxTigEQfi/R9xK+98cvBH0VxPctPlj17mb2/8EYXe4+G63UO9vl25sf/pN7rXIbAThj8eCPcKwwxYpHnkpnHbYxkWKNlvwzF82jnnLY+43+QevcmslfumwRwwfjYQXbtvY4rYn4Ltp7qb90zUIlw5wj1o2fcQwYw58P9ftC2H526LOOy50b2XYLMK5t0C3Tk4QXv7QPUaxjaXssLj/fB9cewbULoIL74RX7oKaPz5isEcUE2a4NSAhvckgQYjx/3ElNzQJQnJrX/jMQxCEax+Ez76Gu/q7xYm2cO7+Z91bAyYImz5i+NUebsHhiG/cDdSemZtMXPl32KNb6QRhxmw4+xb3KuCfTnQzGW9+CrbQ0d6cKHmLwRb62cLBji1h4VK48A53I77p7J+/GbHplVCySDF1biuXj72lsPP2cP0ZbhfF82+HS0+G/Xdx4w4eBbeeD423cesHbBGnPWZ4+mYwGbIb+V/+6GJ9ZTDYjMR+vZ0g/MF+XsH93Nq99albf2GPZGzdwklXw0UnwF493dsY9kji7aFudiSknSolCIX//yONmJaABCEtIjXIGYEQBGHmXLjyPvh+jntdcfVaWLAEjt4bzjzKvc636WuONtVvq/rt5me/BdtrgPVquZtfaWYQ7AZ827/gnc/cTIYd8xa71yxt98YSQbAbrT0LqVcTlq6AlWvceL07u9kAm9I/YX/32uVPBeGNT6BiRXfuomWwag3cfI6TBOvrt9e4VzEfvxbWFMOf7nIzJ/Vru9cqFy+H685wMwj2iuI1D7qbuT1msNc216zZOIPw/nC45XH386KqP848dHYLGK29nTtqnNsbwmTM9lSwNxrOPXbrMyE5u2gL1JEEoUCgNUwUAhKEKLTUNjsCIQiCEVi9Bj79yt2s7Nl4l7Yb3zaw6fZ3h8FO7aFtM8fLNvv5cIR7FNC7Czz2qnsN0G7Y9tx93FQ4uM/G3+xtgZ9N5fft4WRiS4eNP3Yi1Krh9iewf2/dBNo2d/sgmJhcdRoM+9rtIbBnN6j/46p/m1144AV44a8/34zJzrU1CLZ1tN3c7RsT/Xpu/t0Fkxx7XbNPF6hezT1i+HCkWzNQo8gtMix5a8Fit1czrU+TAFtwaP3aJk62GZQdNitiey+YXHRus/kWziZEn3zpXh+11yBtj4Su7TdfA5LdVRmPsyUI8aiDotiMgARBF0ThCIQiCFGI2TN2+439guM3LrQ7/zZo3sjtNZCPo0QQNt3MqWQcm6a3xw226+JFJ/589BJB2HSRYj5iVJ+bE5Ag6IqIIQEJQgyLEmxISRSEZ96Bf74Mp/4K2rdyv9k/9abbRdFmE/JxbE0QbLxn34Fj9tvyyBKEfFQkfZ8ShPSM1KLgBCQIBUee4AGTKAj2rN72IHhtiHubwVby//ZgOGrv/K3Cn/KD26PBHn1EPWxxoa0zKM25UcdS+40EJAi6GmJIQIIQw6IEG1ISBaGkmLb+wD4NbTsCpvtgUrAXgBL7RQISBF0cMSQgQYhhUYINKcmCEGxRlVhOCEgQcoJRneSWgAQhtzzV29YISBB0fYjAlglIEHRlxJCABCGGRQk2JAlCsKVVYlkSkCBkCVCn54OABCEfVNXnlglIEHRliIBmEHQNeENAguBNqQIIVIIQQBGVQl4IaAYhL1jVaXYEJAjZ8dPZUQhIEKLQUtskEZAgJKna3uQqQfCmVAEEKkEIoIhKIS8EJAh5wapOsyMgQciOn86OQkCCEIWW2iaJgAQhSdX2JlcJgjelCiBQCUIARVQKeSEgQcgLVnWaHQEJQnb8dHYUAhKEKLTUNkkEJAhJqrY3uUoQvClVAIFKEAIoolLICwEJQl6wqtPsCEgQsuOns6MQkCBEoaW2SSIgQUhStb3JVYLgTakCCFSCEEARlUJeCEgQ8oJVnWZHQIKQHT+dHYWABCEKLbVNEgEJQpKq7U2uEgRvShVAoBKEAIqoFPJCQIKQF6zqNDsCEoTs+OnsKAQ8E4Q1a9YwevRo2rdvT82aNZkxYwZ169alRo0aUbJWWxFIT0CCkJ6RWhScgASh4MgTPKBngrB06VKefvppDjroIJo0acJ7773H9ttvT506dSguLqZq1apUqVyFNWvXsHLlSqpXr0758uVTPytXrhwbNmxIFdv+d/369amfr127lhUrVlC5cmWqVanCmuLi/7WrUqkyq9euYd26dVSvWg3KwcpVqzBRMSmpUKFCgi+ewFOXIAReYD/TkyD4WTc/ow5AEFq1asVbb73FkiVL2GmnnejatSvPPfdc6qbftm1bdthhB1566SUaNmyY+vPIkSNZuHBh6gZ/1FFHMWnSJAYPHpySjL322ovp06czYsSIlFDY7IS1NZHYfffdKSoq4vnnn09JR69evdhjjz1SYqEjQAIShACL6n9KEgT/a+hPBgEIQrVq1ZgyZUpqRqFx48YpUZg5cyY9evTg/fffp1OnTqnHEkcccURKGkwQdurShaHDhqWEoWZREes2bEj1YTMQy5cvp0WLFimhGDRoEH379mXy5MnMnTs3Netg4zVv3pzPP/881adJg44ACUgQAiyq/ylJEPyvoT8ZeCYIy5Yt45lnnmH//ff/3yOG1q1bpwTAbuJ2U992220ZM2ZMavrfHg3Yb/mjRo3iuOOOS80G2IzBnnvuyeuvv57qY/78+Xz55Zepxwq77rprShBMKurXr58SDJtV+O6775g1a1bqZzbDUKlSJWrVqpXq02YXdARIQIIQYFH9T0mC4H8N/cnAM0GwtQRvvvkmtWrWomGjhnz99depWYMFCxak1gXMmzcPe+Rg7ezxwoQJE1ISMGzYsC0KQoMGDVIzCnbO4sWLadq06S8Kwpw5c1LSUaVKldSYJgr22MFmHXQESECCEGBR/U9JguB/Df3JwDNBMLCzZ89myJAhKSno3r07Xbbfgfc/HJR6rGALFjt06MDHH3+c+o3fZhfs78aPH5965FDy+MHOs1kDezxgswLffPNNSg5sVsAWN9p5tWvXZvjw4ey8885MnTqVRYsWpcTAZMP6sf5svYOtR9ARIAEJQoBF9T8lCYL/NfQnAw8FwR+4itRrAhIEr8sXavAShFArG8e8JAhxrIpiigMBCUIcqqAYfkJAgqBLonAEJAiFY62R/CIgQfCrXgmJVoKQkELHIk0JQizKoCBiSECCEMOiKCQJgq6BwhGQIBSOtUbyi4AEwa96JSRaCUJCCh2LNGMqCLb9se1rYK8e6giLgL0tYm+D2E6VsT4kCLEuT1KDkyAktfJlkXdMBcFePbTtkW1TIx1hEejXrx99+vSJ/3csJAhhXXiBZCNBCKSQXqQRU0Hwgp2CDJuABCHs+nqanQTB08J5GbYEwcuyKegCEJAgFACyhohKQIIQlZjal56ABKH07HRm2AQkCGHX19PsJAieFs7LsCUIXpZNQReAgAShAJA1RFQCEoSoxNS+9AQkCKVnpzPDJiBBCLu+nmYnQfC0cF6GLUHwsmwKugAEJAgFgKwhohKQIEQlpvalJyBBKD07nRk2AQlC2PX1NDsJgqeF8zJsCYKXZVPQBSAgQSgAZA0RlYAEISoxtS89AQlC6dnpzLAJSBDCrq+n2UkQPC2cl2FLELwsm4IuAAEJQgEga4ioBCQIUYmpfekJSBBKz05nhk1AghB2fT3NToLgaeG8DFuC4GXZFHQBCEgQCgBZQ0QlIEGISkztS09AglB6djozbAIShLDr62l2EgRPC+dl2BIEL8umoAtAQIJQAMgaIioBCUJUYmpfegL9b3fn3nFx6fvQmSIQIoFjL4Y+XeHC34SYnXLylIAEwdPCeRm2BMHLsinoAhCQIBQAsoaISkCCEJWY2peegGeCUFxczNSpU5k5cyblypVjh+23p179+qXPP8KZNvbo0aNp164dNWvWjHCmmnpJQILgZdlCD1qCEHqF45SfZ4KwZs0a3n77berWrUv58uVZvXo1ffv2ZfHixWzYsIE6deqk6C5atCglELVr12bdunWpn1epUiX1z/r166lcuXLq3KpVqrB6zZrUuXYsW7YsdfOvUKECa9eupWLFiqm/X7lyZarNe++9R58+fWjUqFGcqqhY8kFAgpAPquozSwIShCwB6vQIBDwVhK5du1JUVMSoUaNo2LAhn332GZUqVaJLly6p5L/44ovUDb5Xr17MmzePKVOmpOSgTZs2LF++nN69ezNo0CA6derEhAkTUn1ZGzusnf39J598wjbbbEPjxo2ZPHny/0Tj6KOPliBEuMS8bSpB8LZ0IQcuQQi5unHLzVNBqF+/PjabsGLFCrp3786SJUuYMWMG9hjA/rF/b968eepG/tFHH6VmEuxG37p1a4YMGULTpk359NNPU6IwceJErD+bNejRowcDBw6kY8eOqccJhx9+eOrnNtvQo1s3XnvjDfbaay8JQtyu43zEI0HIB1X1mSUBCUKWAHV6BAKeCoLJgN3wd9xxx9Tjg2+++SY1U9C2bVtatmzJuHHj/icJJgc2OzB//nz23ntvpk+fnvq5/b39ncmCCYI9Qthll1149tln6dChQ0oQjjvuOMaMGZOaPbDZiJdeein1SEOPGCJcY742lSD4Wrmg45YgBF3emCXnqSB07tw5NUNgswhvvPEG1apVS80m2P/a4wJ7jLBw4cLU4wJbi1CjRo2URNj6AZspeOedd9h5551Tf2f/W/KIYfvtt089erD/3VQQTEIaNGjAyJEjOfTQQyUIMbuM8xKOBCEvWNVpdgQkCNnx09lRCHgmCPb4wNYd2KMCWx/Ahg2MGTuWadOmpRYXmgjUq1ePESNGpNYk9OzRIyULI0eNolatWvTs2TP1CMJu/vYGxLTp02nSpElqcePnn3+eepRgMwstWrRIzRzssccebFi/nmHDh6fkw46OHTpQp27dKJTV1kcCEgQfqxZ8zBKE4EscowQ9EwQjZ48CbFag5LB/L3kLwf7efrL+x7cSypcrh72fUPJze/OhpL392d5osDaUK5f6c8lhf2d9WJuSMTftI0YVVCj5IiBByBdZ9ZsFAQlCFvB0akQCHgpCxAzVXARKR0CCUDpuOiuvBCQIecWrzjcjIEHQBSECWyYgQdCVEUMCEoQYFiXYkCQIwZZWiWVJQIKQJUCdng8CEoR8UFWfWyYgQdCVIQKaQdA14A0BCYI3pQog0JgKgr2+OHTo0NSrizrCImDfsthuu+02W2gayww1gxDLsiQ9KAlC0q+AQuYfU0Gwbx/YhkX2TQUdYRHYddddU6+bbvomSiwzlCDEsixJD0qCkPQroJD5x1QQColAY4nAFglIEHRhxJCABCGGRQk2JAlCsKVVYlkSkCBkCVCn54OABCEfVNXnlglIEHRliMCWCUgQdGXEkIAEIYZFCTYkCUKwpVViWRKQIGQJUKfng4AEIR9U1admEHQNiEAUAhKEKLTUtkAEJAgFAq1hAM0g6DIQAT1i0DXgDQEJgjelCiBQCUIARVQKeSGgGYS8YFWn2RGQIGTHT2dHISBBiEJLbZNEQIKQpGp7k6sEwZtSBRCoBCGAIiqFvBCQIOQFqzrNjoAEITt+OjsKAQlCFFpqmyQCEoQkVdubXCUI3pQqgEAlCAEUUSnkhYAEIS9Y1Wl2BCQI2fHT2VEISBCi0FLbJBGQICSp2t7kKkHwplQBBCpBCKCISiEvBCQIecGqTrMjIEHIjp/OjkJAghCFltomiYAEIUnV9iZXCYI3pQogUAlCAEVUCnkhIEHIC1Z1mh0BCUJ2/HR2FAIShCi01DZJBCQISaq2N7lKELwpVQCBShACKKJSyAsBCUJesKrT7AhIELLjp7OjEJAgRKGltkkiIEFIUrW9yVWC4E2pAghUghBAEZVCXghIEPKCVZ1mR0CCkB0/nR2FgAQhCi21TRIBCUKSqu1NrhIEb0oVQKAShACKqBTyQkCCkBes6jQ7AhKE7Pjp7CgEJAhRaKltkghIEJJUbW9ylSB4U6oAApUgBFBEpZAXAhKEvGBVp9kRkCBkx09nRyHgqyCsWweLlsHbQ+GjUTBhOqxZGyVztc0VgXLloFF92KUz7LcLtG8JlSqA/b3PhwTB5+oFG7sEIdjSxjAx3wRh+Up4ayi8NwzGTIL2LaBTa2hcH6pUjiHghIT0wzyY/D18MwVqVIM9usGRe0HjbfwFIEHwt3YBRy5BCLi4sUvNJ0FYtBT+fD+MnwY7tYdLT4Zt6sQOaaIDWrkannwDXvoIVqyEG86CPjv6OZsgQUj0pRzX5CUIca1MiHH5IghDv4Lb/gXb1oWzjoLObaBihRArEkZOM+fAi4PgtSFwyG7whyOgqmczPBKEMK7FwLKQIARW0Fin44MgTJ0FZ//FzRpcdjLUqRlrpAruRwIbNsBz78HDL8Oph8Jx+/uFRoLgV70SEq0EISGFjkWacReEuQuh/93uUcKNZ0FRtVhgUxAZEli/AV4eBA++CFeeAnt2z/DEGDSTIMSgCArhpwQkCLomCkcg7oJw/3Pw+hC4/wpo1qBwXDRS7gisLYYb/wnfToX7LoP6nqwbkSDk7hpQTzkjIEHIGUp1lJZAnAVh5lw49Xr404lwYJ+0qahBjAnMmA0nXwt/Ogl+tUeMA90kNAmCH3VKWJQShIQVvEzTjasg2PPre56CEePg3ku07qBML5IcDf7AczBkNDx2HVQon6NO89iNBCGPcNV1aQlIEEpLTudFJxBXQVixCi68A9q1gIt/Cz7suWMx26t9NoVumwStXw8b8ONmGP3KiX6G7ZNwzi1wz8Vu/4q4HxKEuFcokfFJEBJZ9jJKOq6CMHs+nHMrXHB8/Be22Q6Odz8FE2dC7SIoXge3/BE+HAnjp8M5R5dRcWM2rO1jcd5tcPBucMIBMQtuC+FIEOJfowRGKEFIYNHLLOW4CsKkmXDG/8ET10OTbcsMT0YDz5jjXsO0qfO6NWHAM9CvB7RqBLZxkO0maNJgv0HblsSLl7qcbHvoerWdWLRqDA3rbT6c7U5oP69SyW0rbTMSNarDvIVuK+OlK2G7phmFGItGq9fCRXe4vSyuPzMWIW01CAlC/GuUwAglCAksepmlHFdBsN+8T78JBj1YZmgyHnjOAjj9/+CiE2HHdm69RPlybg+AryfCBSfA5QOgRSNYsRpGfAMv3Aa/uw6aNoBOreCTL+GKU6Fjq43DXnA7nHMMdGgJT7zmJOGIPeFPd0P3jmDbTttv5bdfANWqZhxumTa0V1btuOPCMg0jo8ElCBlhUqPCEpAgFJZ3skeTIOSm/rZj4H3PwZo10K45DLgYXvrQCcL+vd1mQQ9dBbPmuWn2f9/oBOHi37iPHD0yEGzd3imHpReEO/4Dd14E9hv5Yf3hH1dB6ya5ySPfvUgQ8k1Y/QdOQIIQeIFjlZ4EIXflsPf95y92N/sWDaFqFScI+/SCJ16Ff/zZ/dzWVjx6jROEP5/mdoh86i1YtgJO/3V6Qbj/efi/c2DdejjofHjwSmjTLHd55LMnCUI+6arvBBCQICSgyLFJUYKQfSlst8eXP4LfHQKVKsKTb8H3c6BVEycI9glkkwb7TX/WAjjvr/CvG9ILwoW3w5lHua9V2iuCa9a5RwwD/gu3ng+rVsMRFzvxsDUMPhwSBB+qpBhjTECCEOPiBBdaXAVh4gz3XP+Fv8Z/D4Qly92sQNtmbp3BR6PgvGPdokQThLOPgrNvhQN6g8mEvd3w8h3pBcH2gZiz0H2Y6qVBsFtXJwjn/tVtNmSzEaPHwyPXQHUP1iAUF8Of7nILLW8+N/7/KWkNQvxrlMAIJQgJLHqZpRxXQfh+Lpx9C1x3BnTrUGZ4Mh7YFgwO/AgWLoGu7aHPTvD1BDdjsHdPGDMJPh0NDevDk2/C49fBM+/CPju7hYojx7k1Bbt22TikPXJ44X2w/RU6becWPrZsBLc8Dj06QsWKcHg/qFMj4zDLtOHSFWALL+3zz/Z1x7gfEoS4VyiR8UkQEln2Mko6roJgv5XbzaR3FzjzyDKCk6NhFyyGGx+G/ifB7IUw4Cl49Dp3w496TPsBStYglPdgN8JN87NPQJv0XXM69OwUNfPCt5cgFJ65RkxLQIKQFpEa5IxAXAXBtlq+9kGYvQDu7g/VquQs5TLp6NGB8OlXULkSnPIr6Ll96cKw38JHf+dmKGy3Rp+OVwfDA8/Di7e7tRpxPyQIca9QIuOTICSy7GWUdFwFwXB8NQEuuhNuOx+6dSwjQDka1oTHNk2y3/qrVs5Rpx51Y49Ljr8SjtoHTj3Uj8AlCH7UKWFRShASVvAyTTfOgmBgrroPbGr63kuhZvUyRaXBS0nAdoC0xyLvDIUBl7iFnD4cEgQfqpS4GCUIiSt5GSYcd0Gwtxls5fvuO8FFJ0HFCmUIS0OXioC9aXHJADjpQPjtwf48GpEglKrcOim/BCQI+eWr3jcl0P9O9293/Cm+XF79GB56EU4+GH61u9uASEf8CdiXLG29hC3QtC2or/lD/GPeNMJjL4U+XeHCE/2KW9EGTUCCEHR5Y5acD4JgyOy7Bvc/B3v2gKtPc8/ydcSbwOAv4KaHoWFd+NtlUKso3vH+NDoJgl/1Ski0EoSEFDoWafoiCOs3wHvD3I6E9pjhiL5wYB8oqhYLjAriRwK23bR9jOrlD2Ho13DU3nDWkW7PBt8OCYJvFUtEvBKERJQ5Jkn6IggluGxPgb/+C4aPcd8i6Nsd9t0Ftm8tWSjLS2rcZPhsDLzzmdvhsVkD93VKq4uvhwTB18oFHbcEIejyxiw53wShBN/4aTBiHIydBPZn24Bo3bqYwU1IOLYfgz0+2K6p+27ETu3cP758gvqXyiRBSMgF7FeaEgS/6uV3tL4Kgt/UFb0PBCQIPlQpcTFKEBJX8jJMWIJQhvA1dKwJSBBiXZ6kBidBSGrlyyJvCUJZUNeYPhCQIPhQpcTFKEFIXMnLMGEJQhnC19CxJiBBiHV5khqcBCGplS+LvCUIZUFdY/pAQILgQ5USF6MEIXElL8OEJQhlCF9Dx5qABCHW5UlqcBKEpFa+LPKWIJQFdY3pAwEJgg9VSlyMEoTElbwME5YglCF8DR1rAhKEWJcnqcFJEJJa+bLIW4IQmfqiBQtZtmI5FStUoEGDBpSvkNkXJtfbZ4+xz0jk/zsSc2bPpqh6dRYuXkytGjWoVadO5DwTf4IEIfGXQBwBSBDiWJVQY5IgRK7sM888Q3FxMfXq1WOXXXahYsWKFFWtRvG6daxnAxXLV2Dl6lUpEahWrRrLly9P/Xn69OmYJHTq1Cl1/rp161i7di01atRgzerVrFm7lurVq6f+zv6pWVTEilWrUufYGBUqVGD16tXUqF6dpcuXU7liJdYUr6VKlSqpv69UqRKVKlZkxcqVvP3226kxJk6cSLly5bji8sv9+cxy5Irk6QQJQp7AqttsCEgQsqGnc6MRkCBE4wW8+OKLtG7dmoYNGvDp0KHMmzcvJQBt27blu+++o2XLlsydOzd1U+/cuTOjR49O3fDr16/PqlWrOOyww5gzZw6DBw9O3cRNMuxGPn/+fDp17MioL75ISUGXLl0YO3Zs6sbfvHnzVH/Wf69evRg2bBh16tRJSUPNmjVZvHhx6s/WxvpeuXIl++67b0oYHnn0UW68/gYoXy5yrok+QYKQ6PLHNXkJQlwrE2JcEoTIVf3vf/+buoE3btyYTz/9lFNPPZUHHniA7t27p27qX331Ffvssw8vvPBCagahY4cOzJ03LyUNzZo1o0+fPkyYMCElDu3btWPCxIk0bNgwJRGLFi1KSYFJRtOmTRk1ahQtWrRIzTqYmCxdupS6devSvn371J+PP/ZYnnnuudQsxcEHHcSbb73FgQceyJtvvslvf/tbPvnkExYsWMCRv/61ZhCiVlqCEJWY2heAgAShAJA1xI8EJAiRL4WXX36ZPr17U7tuXe68887Ub/TvvvsuvXv35sD99ueV119L3eDHjx9P7dq1U7/Vz5w5k6KiotSfDz/sMCZPmYL1Y2LQqFEjvv3229RjAhMIm42YNGlSambA/rEbvEnFkCFDUj8fMWIEZ5xxBgMHDuSAAw7g888/T81EHHPMMfz73/+mZ4+efDr0U04//fRU227dulG1atXIeSb+BAlC4i+BOAKQIMSxKqHGJEGIXFn7rd4eJ9jN+/XXX0/NBrRp04Ztt92W7t26MWLkyNTjA1tbcOSRR6ZmEmxtgU35RDZd8wAAB5dJREFUm0jYjdyEwf7eBOL444/ngw8+SM022OyAzTTYI4e99tortW5h6tSpqX4mT55Mq1at+Oyzzzjk4IMZ9OGHqdmGfv36pR5PmKCYWNjjBxOP/fbbLyUdJia2DkFHRAIShIjA1LwQBCQIhaCsMRwBCULOr4SRI0emfqs3KfjNSSdtcWr/hx9+YNy4cSkJ0BFTAhKEmBYm2WFJEJJd/8JmL0HIC+9Zs2alFiXaAkMdnhKQIHhauLDDliCEXd94ZSdBiFc9FE18CEgQ4lMLRfI/AhIEXQyFIyBBKBxrjeQXAQmCX/VKSLQShIQUOhZpShBiUQYFEUMCEoQYFkUhSRB0DRSOgAShcKw1kl8EJAh+1Ssh0UoQElLoWKQpQYhFGRREDAlIEGJYFIUkQdA1UDgCEoTCsdZIfhGQIPhVr4REK0FISKFjkaYEIRZlUBAxJCBBiGFRFJIEQddA4QhIEArHWiP5RUCC4Fe9EhKtBCEhhY5FmhKEWJRBQcSQgAQhhkVRSBIEXQOFIyBBKBxrjeQXAQmCX/VKSLQShIQUOhZpShBiUQYFEUMCEoQYFkUhSRB0DRSOgAShcKw1kl8EJAh+1Ssh0UoQElLoWKQpQYhFGRREDAlIEGJYFIUkQdA1UDgCEoTCsdZIfhGQIPhVr4REK0FISKFjkaYEIRZlUBAxJCBBiGFRFJIEQddA4QhIEArHWiP5RUCC4Fe9EhKtBCEhhY5Fmv3vcmHccVEswlEQIhAbAsdeBn12ggtPjE1ICkQEJAi6BgpHoP/dPwrChYUbUyOJgA8Ejr38R0E4wYdoFWNCCEgQElLoWKQpQYhFGRREDAlIEGJYFIUkQdA1UDgCEoTCsdZIfhGQIPhVr4REK0FISKFjkaYEIRZlUBAxJCBBiGFRFJIEQddA4QhIEArHWiP5RUCC4Fe9EhKtBCEhhY5FmhKEWJRBQcSQgAQhhkVRSBIEXQOFIyBBKBxrjeQXAQmCX/VKSLQShIQUOhZpShBiUQYFEUMCEoQYFkUhSRB0DRSOwLUPwZz5cHd/qFK5cONqJBGIM4Ely+B318FBu8EZv45zpIotYQQkCAkreJmm++y78Pz78PfLoH7tMg1Fg4tAbAhMmA7n3QaXnwJ9u8cmLAUiAhIEXQOFI7BgMRx3FdzyR+jRsXDjaiQRiDOBVwbDgKfh+VuhVo04R6rYEkZAgpCwgpd5un++H2bOhQcu12OGMi+GAihzAitXwx9uhF06w/nHl3k4CkAENiUgQdD1UFgCYyfDJffA0fvAyYdAhfKFHV+jiUBcCKxZC397BoZ+Df+4Cmpr9iAupVEcjoAEQVdCYQms3wD/eg3+9TpcdCIcsnthx9doIhAXAvbfwKMD3X8Hv9oTysUlMMUhAhIEXQNlSeCfL8FTb8EJB8Dx+0ON6mUZjcYWgcIRmLcI/vMGvPEJ/P5wOGbfwo2tkUQgAgHNIESApaY5JGAzCa8Nhjv+A5UqwplHuscOOkQgVAKr18Kz78Djr0G58nDl76BvDyinqYNQS+57XhIE3yvoe/zjp8Hbn8EnX7rFi22aQs0i37NS/CKwOYGFS2HqD9CqMezeFQ7eDZpsK0oiEGsCEoRYlydhwc2eD8PHwuJlCUtc6QZPYJu67tXebeoEn6oSDIeABCGcWioTERABERABEcgZAQlCzlCqIxEQAREQAREIh4AEIZxaKhMREAEREAERyBkBCULOUKojERABERABEQiHgAQhnFoqExEQAREQARHIGQEJQs5QqiMREAEREAERCIeABCGcWioTERABERABEcgZAQlCzlCqIxEQAREQAREIh4AEIZxaKhMREAEREAERyBkBCULOUKojERABERABEQiHgAQhnFoqExEQAREQARHIGQEJQs5QqiMREAEREAERCIeABCGcWioTERABERABEcgZAQlCzlCqIxEQAREQAREIh4AEIZxaKhMREAEREAERyBkBCULOUKojERABERABEQiHgAQhnFoqExEQAREQARHIGQEJQs5QqiMREAEREAERCIeABCGcWioTERABERABEcgZAQlCzlCqIxEQAREQAREIh4AEIZxaKhMREAEREAERyBkBCULOUKojERABERABEQiHgAQhnFoqExEQAREQARHIGQEJQs5QqiMREAEREAERCIeABCGcWioTERABERABEcgZAQlCzlCqIxEQAREQAREIh4AEIZxaKhMREAEREAERyBkBCULOUKojERABERABEQiHgAQhnFoqExEQAREQARHIGQEJQs5QqiMREAEREAERCIeABCGcWioTERABERABEcgZAQlCzlCqIxEQAREQAREIh4AEIZxaKhMREAEREAERyBkBCULOUKojERABERABEQiHgAQhnFoqExEQAREQARHIGQEJQs5QqiMREAEREAERCIeABCGcWioTERABERABEcgZAQlCzlCqIxEQAREQAREIh4AEIZxaKhMREAEREAERyBkBCULOUKojERABERABEQiHgAQhnFoqExEQAREQARHIGQEJQs5QqiMREAEREAERCIeABCGcWioTERABERABEcgZAQlCzlCqIxEQAREQAREIh8D/AyDMuuYyAqFKAAAAAElFTkSuQmCC;" vertex="1" parent="1">
                    <mxGeometry x="630" y="650" width="146.66" height="110" as="geometry"/>
                </mxCell>
            </root>
        </mxGraphModel>
    </diagram>
</mxfile>